<svg xmlns="http://www.w3.org/2000/svg" viewBox="0 0 500 500">

    <circle cx="250" cy="250" r="250" stroke="black" stroke-width="10"/>
  
    <!-- Création des 20 secteurs -->
    <g>
        <!-- Haut droit-->
        <!-- 13 --> <path d="M250,250 L497,211 A250,250 0 0 0 473,137 Z" fill="#1C1A1D"/>
        <!-- 4 --> <path d="M250,250 L473,137 A250,250 0 0 0 427,73 Z" fill="#EFDEAD"/>
        <!-- 18 --> <path d="M250,250 L427,73 A250,250 0 0 0 363,27 Z" fill="#1C1A1D"/>
        <!-- 1 --> <path d="M250,250 L363,27 A250,250 0 0 0 289,3 Z" fill="#EFDEAD"/>
        <!-- 20 --> <path d="M250,250 L289,3 A250,250 0 0 0 211,3 Z" fill="#1C1A1D"/>

        <!-- Haut gauche -->
        <!-- 5 --> <path d="M250,250 L211,3 A250,250 0 0 0 137,27 Z" fill="#EFDEAD"/>
        <!-- 12 --> <path d="M250,250 L137,27 A250,250 0 0 0 73,73 Z" fill="#1C1A1D"/>
        <!-- 9 --> <path d="M250,250 L73,73 A250,250 0 0 0 27,137 Z" fill="#EFDEAD"/>
        <!-- 14 --> <path d="M250,250 L27,137 A250,250 0 0 0 3,211 Z" fill="#1C1A1D"/>
        <!-- 11 --> <path d="M250,250 L3,211 A250,250 0 0 0 3,289 Z" fill="#EFDEAD"/>

        <!-- Bas gauche -->
        <!-- 8 --> <path d="M250,250 L3,289 A250,250 0 0 0 27,363 Z" fill="#1C1A1D"/>
        <!-- 16 --> <path d="M250,250 L27,363 A250,250 0 0 0 73,427 Z" fill="#EFDEAD"/>
        <!-- 7 --> <path d="M250,250 L73,427 A250,250 0 0 0 137,473 Z" fill="#1C1A1D"/>
        <!-- 19 --> <path d="M250,250 L137,473 A250,250 0 0 0 211,497 Z" fill="#EFDEAD"/>
        <!-- 3 --> <path d="M250,250 L211,497 A250,250 0 0 0 289,497 Z" fill="#1C1A1D"/>

        <!-- Bas droit -->
        <!-- 17 --> <path d="M250,250 L289,497 A250,250 0 0 0 363,473 Z" fill="#EFDEAD"/>
        <!-- 2 --> <path d="M250,250 L363,473 A250,250 0 0 0 427,427 Z" fill="#1C1A1D"/>
        <!-- 15 --> <path d="M250,250 L427,427 A250,250 0 0 0 473,363 Z" fill="#EFDEAD"/>
        <!-- 10 --> <path d="M250,250 L473,363 A250,250 0 0 0 497,289 Z" fill="#1C1A1D"/>
        <!-- 6 --> <path d="M250,250 L497,289 A250,250 0 0 0 497,211 Z" fill="#EFDEAD"/>
    </g>

    <!-- <circle cx="250" cy="250" r="125" stroke="lighgray" stroke-width="1" fill="rgba(0,0,0,0)"/> -->
    <circle cx="250" cy="250" r="35" stroke="black" stroke-width="2" fill="#3E7A31"/>
    <circle cx="250" cy="250" r="14" stroke="black" stroke-width="2" fill="#BB2A32"/>

</svg>